<svg width="89" height="22" viewBox="0 0 89 22" fill="none" xmlns="http://www.w3.org/2000/svg">
<path d="M0.879211 0.137795V4.4148H7.21867V21.4923H11.6535V4.4148H17.993V0.137795H0.879211ZM37.2556 1.37807C35.9679 0.490295 34.0406 0.0185547 31.663 0.0185547C30.5916 0.0185547 25.3131 0.131703 25.0906 0.137795L24.253 0.155203V21.4923H28.7167V13.753H31.5671C33.2614 13.7904 34.9392 13.4179 36.4582 12.6668C38.5399 11.3717 39.7859 9.07998 39.7361 6.6325C39.7361 4.2442 38.9038 2.47561 37.2556 1.37807ZM28.7053 4.4148C29.5778 4.4148 30.8944 4.35213 31.4362 4.35213C34.537 4.35213 35.1695 5.3017 35.1695 6.72389C35.1791 7.55509 34.7996 8.34365 34.1435 8.8563C33.2291 9.2967 32.2153 9.49341 31.2015 9.42465H28.7167L28.7044 4.4148H28.7053ZM49.2104 4.86391C47.0161 4.84737 44.9143 5.74646 43.4128 7.34359C41.8554 8.93637 41.0012 11.0844 41.0414 13.3091C41.0108 15.5451 41.865 17.7027 43.4189 19.3147C44.9204 20.9066 47.0196 21.8031 49.2104 21.7883C50.7364 21.8074 52.2327 21.3722 53.5091 20.5375V21.2251H57.9152V5.22772L53.5772 6.13204C52.2816 5.28343 50.7608 4.84128 49.2104 4.86391ZM52.1865 10.1923C52.9804 11.0348 53.4123 12.1533 53.3896 13.3091C53.4158 14.4737 52.983 15.6025 52.1865 16.4538C51.4658 17.2388 50.4485 17.6862 49.3814 17.6862C48.3152 17.6862 47.2971 17.2388 46.5773 16.4538C45.7798 15.6008 45.3497 14.4693 45.3793 13.303C45.354 12.148 45.7842 11.0296 46.5773 10.1871C47.2875 9.38722 48.3074 8.93028 49.3788 8.93028C50.4502 8.93028 51.4701 9.38722 52.1803 10.1871L52.1865 10.1923ZM69.0036 11.5971L67.2935 10.9434C65.7544 10.3742 65.7544 10.2036 65.7544 9.97124C65.7544 9.60655 65.7544 8.9355 67.7158 8.9355C69.124 8.93898 70.5112 9.27581 71.7632 9.91902L72.983 10.4882V5.89878L72.4132 5.68815C70.8838 5.11196 69.2636 4.81343 67.6303 4.80733C63.6849 4.80733 61.3248 6.67254 61.3248 9.79456C61.3248 12.9166 63.6055 14.0367 65.3609 14.6739L67.1967 15.3284C68.9756 15.9594 69.1467 16.1352 69.1467 16.4651C69.1467 16.9316 69.1467 17.7106 66.9175 17.7106C65.2467 17.7062 63.6107 17.2336 62.1973 16.3458L60.9087 15.606V20.3208L61.3711 20.5602C63.0855 21.4036 64.9762 21.8318 66.8887 21.8109C71.0792 21.8109 73.5815 19.8552 73.5815 16.5852C73.6103 13.5876 71.5233 12.5293 69.0036 11.598V11.5971ZM83.8436 11.5971L82.1336 10.9434C80.5936 10.3742 80.5936 10.2036 80.5936 9.97124C80.5936 9.60655 80.5936 8.9355 82.555 8.9355C83.9632 8.93898 85.3504 9.27581 86.6024 9.91902L87.8222 10.4882V5.89878L87.2524 5.68815C85.723 5.11196 84.1028 4.81343 82.4695 4.80733C78.5241 4.80733 76.164 6.67254 76.164 9.79456C76.164 12.9166 78.4447 14.0367 80.2001 14.6739L82.0358 15.3284C83.8148 15.9594 83.9858 16.1352 83.9858 16.4651C83.9858 16.9316 83.9858 17.7106 81.7567 17.7106C80.0858 17.7062 78.4499 17.2336 77.0365 16.3458L75.7479 15.606V20.3208L76.2103 20.5602C77.9247 21.4036 79.8154 21.8318 81.7279 21.8109C85.9184 21.8109 88.4207 19.8552 88.4207 16.5852C88.4495 13.5876 86.3913 12.5293 83.8428 11.598L83.8436 11.5971Z" fill="#122F53"/>
</svg>
